<?xml version="1.0" encoding="UTF-8"?>
<!DOCTYPE svg PUBLIC "-//W3C//DTD SVG 1.1//EN" "http://www.w3.org/Graphics/SVG/1.1/DTD/svg11.dtd">
<!-- Creator: CorelDRAW X8 -->
<svg xmlns="http://www.w3.org/2000/svg" xml:space="preserve" width="115px" height="128px" version="1.1" shape-rendering="geometricPrecision" text-rendering="geometricPrecision" image-rendering="optimizeQuality" fill-rule="evenodd" clip-rule="evenodd"
viewBox="0 0 1030688 1143120"
 xmlns:xlink="http://www.w3.org/1999/xlink">
 <g id="Слой_x0020_1">
  <metadata id="CorelCorpID_0Corel-Layer"/>
  <path id="Symbol_x002c_-Version-7.1" fill="white" d="M829797 960418c-1779,0 -5739,13486 -1664,23049 2171,5093 7270,7244 11538,5817 4207,-1404 5434,-5408 5546,-8526 395,-10476 -8789,-20340 -15420,-20340l0 0zm-30587 -152926l1339 14808 -12769 -1427 0 16860 12769 -1420 -1339 15461 17351 0 -1343 -15461 12773 1420 0 -16860 -12773 1427 1343 -14808 -17351 0 0 0zm8697 58353c-3452,0 -6252,2867 -6252,6404 0,3534 2800,6402 6252,6402 3453,0 6256,-2868 6256,-6402 0,-3537 -2803,-6404 -6256,-6404l0 0zm0 25926c-3452,0 -6252,2871 -6252,6409 0,3537 2800,6401 6252,6401 3453,0 6256,-2864 6256,-6401 0,-3538 -2803,-6409 -6256,-6409l0 0zm0 26306c-3452,0 -6252,2871 -6252,6405 0,3540 2800,6408 6252,6408 3453,0 6256,-2868 6256,-6408 0,-3534 -2803,-6405 -6256,-6405l0 0zm20202 6405c0,3540 2800,6408 6253,6408 3456,0 6256,-2868 6256,-6408 0,-3534 -2800,-6405 -6256,-6405 -3453,0 -6253,2871 -6253,6405l0 0zm26218 0c0,3540 2803,6408 6256,6408 3452,0 6252,-2868 6252,-6408 0,-3534 -2800,-6405 -6252,-6405 -3453,0 -6256,2871 -6256,6405l0 0zm-46420 28808c-5353,0 -18561,27211 -8717,40971 1883,2638 5184,4112 8717,4112 3538,0 6838,-1474 8722,-4112 9843,-13760 -3365,-40971 -8722,-40971l0 0zm-21889 7128c-6628,0 -15816,9864 -15416,20340 111,3118 1339,7122 5545,8526 4268,1427 9367,-724 11538,-5817 4079,-9563 115,-23049 -1667,-23049l0 0zm-10172 -35936c0,3540 2797,6408 6253,6408 3456,0 6256,-2868 6256,-6408 0,-3534 -2800,-6405 -6256,-6405 -3456,0 -6253,2871 -6253,6405l0 0zm-25575 0c0,3540 2797,6408 6253,6408 3452,0 6256,-2868 6256,-6408 0,-3534 -2804,-6405 -6256,-6405 -3456,0 -6253,2871 -6253,6405l0 0zm-6171 0c0,-5458 943,-10382 943,-10382l51979 0 0 -4511 3 -38053 -3 -7 0 -10814c-25088,4406 -45155,23806 -51137,48867 -1457,2083 -6171,3149 -9495,2777 -19181,-2354 -58002,-9371 -58002,-17663 0,-11642 7869,-16302 15427,-16302 10774,0 22687,5853 32602,-8539 -35293,1620 -8237,-49496 -37187,-59192 1437,13050 13,36015 -4552,48155 0,0 -10375,-11109 -22021,-15299 876,9475 -899,29112 -5123,38053 0,0 -12336,-11446 -25129,-15727 11802,17151 11396,41627 8221,56516 -920,4309 2286,9668 11284,9273 14075,-622 62154,1501 83009,10050 6482,2661 12035,5708 14754,10341 2205,6239 7669,15907 14399,20861 3019,-10787 15897,-22342 24283,-21923 2502,125 5275,4322 5850,8430 737,-3824 6926,-14385 13702,-14385 6256,0 12266,8833 14355,16134 629,-4687 3392,-9702 5901,-9702 8421,0 19015,7490 23005,19864 3237,-4042 18078,-23165 19756,-35714l-125881 0c0,0 -943,-5431 -943,-11108l0 0zm74693 -63761l0 53379 52023 0c-4522,-27215 -25461,-48695 -52023,-53379l0 0zm-613928 43951c1089,369 2194,108 3287,-470 -3507,4893 -3362,8113 -1853,9624 2373,2354 4129,-1975 10124,-8356 5999,-6371 10148,-8315 7788,-10675 -1525,-1522 -4684,-1563 -9398,2286 521,-1127 724,-2246 345,-3342 -1985,-5755 -11220,-13414 -16306,-13435 -784,0 -1501,190 -2140,450 2242,-3601 1660,-6320 165,-7815 -1650,-1640 -2593,-487 -4446,1884 250,-1657 -170,-3602 -1732,-5972 -7642,-11589 -48053,-49750 -57230,-53585 -5475,-2300 -7274,882 -7274,882 0,0 -3030,1955 -632,7525 4007,9312 42838,49161 54329,56662 2353,1532 4247,1904 5846,1599 -2231,1958 -3300,2969 -1663,4606 1504,1495 4169,1999 7601,-426 -233,666 -385,1403 -358,2208 172,5235 7893,14494 13547,16350l0 0zm-97134 -112891c-1197,0 -2894,280 -4145,1609 -1269,1346 -1715,3426 -1252,5840 508,2621 1995,5286 4204,7490 2647,2642 5975,4217 8893,4217 1204,0 2892,-274 4143,-1603 2732,-2904 1386,-9008 -2949,-13330 -2655,-2637 -5975,-4223 -8894,-4223l0 0zm125675 141648c-31,-4030 -7636,-10794 -16662,-10794 -13401,0 -19200,8532 -19200,12878 0,8180 7872,9231 10290,9370 9431,585 24638,-9100 25572,-11454l0 0zm-11539 20436c-3560,4578 -4896,9049 -3973,13289 1123,5134 6178,7440 10693,7440 4761,0 9025,-2256 11403,-6036 5123,-8109 5346,-26059 3621,-28024 -4294,0 -15707,5563 -21744,13331l0 0zm-117605 -186909c-3788,-3781 -11535,1850 -16164,-771 2056,-11541 10189,575 18051,-7771 3135,-3334 1450,-8538 -349,-10107 -3388,3449 -8629,2255 -9028,338 8920,-21176 -8515,-44783 -25254,-41827 3283,4413 4264,19755 2833,23901 6375,4599 1820,15427 -5217,12278 -4714,-1930 -13036,-13773 -3466,-22115 -278,-3007 -5540,-3740 -11133,3510 4102,-13303 -21020,-9134 -26184,-5938 -2935,5404 -6188,31391 6588,26748 -6855,5989 -5982,11379 -3050,11575 7798,-10104 19542,-1907 21568,2885 3276,7149 -7095,12160 -11755,5752 -3987,1606 -18910,1079 -23296,-2164 -2343,17317 21118,34513 41401,24676 1867,355 3196,5698 -44,9299 1583,1809 6679,3371 9820,37 7849,-8346 -4162,-16340 6977,-18819 2688,4684 -2526,12830 1254,16611 6060,6046 13669,-5678 21145,-6151 220,-7704 11359,-15901 5303,-21947l0 0zm-62803 -26735c0,0 -3920,-2793 781,-7920 4815,-4998 7662,-1048 7662,-1048 0,0 4417,9868 5719,14413 -4450,-1201 -14162,-5445 -14162,-5445l0 0 0 0zm38787 30012c-2435,308 -8197,5461 -11085,2577l-13226 -13185 6611 -7044 6638 -7030 13209 13201c2895,2875 -1924,8975 -2147,11481l0 0zm219101 202105c446,-1971 139,-3557 -893,-4585 -321,-328 -612,-507 -788,-507 -744,0 -2401,2059 -4000,4051 -1332,1647 -2989,3706 -5103,5941 -2107,2252 -4058,4018 -5620,5445 -1860,1684 -3781,3435 -3805,4223 0,186 190,480 531,815 683,687 1596,1028 2712,1028 1698,0 5377,-872 10923,-6770 4210,-4463 5610,-7706 6043,-9641l0 0zm78 15738c-2881,3071 -5810,5252 -7430,6368 1147,1167 4417,3239 8502,3239 2330,0 4507,-686 6496,-2049 4075,-6743 142,-13645 -1627,-15406 -1031,1711 -3064,4795 -5941,7848l0 0zm-44624 -37525c-2100,1978 -6953,15670 -4836,24012 910,3575 2878,5103 6202,4921 3443,-220 5316,-2019 5898,-5675 1319,-8329 -4978,-21571 -7264,-23258l0 0zm-2658 -38060c118,233 24895,22092 33207,30008 1958,1867 4660,2296 7403,896 1566,-805 3513,-1725 5532,-2651 24774,-8786 65529,-9773 80476,-9110 9002,395 12180,-4958 11284,-9273 -2928,-14091 -3584,-39365 8217,-56516 -12789,4281 -25125,15727 -25125,15727 -4227,-8941 -5999,-28578 -5123,-38053 -11646,4190 -22024,15299 -22024,15299 -4562,-12140 -5989,-35105 -4552,-48155 -28950,9696 -1890,60812 -37188,59192 9922,14392 21832,8542 32609,8542 7558,0 16945,4964 15424,16299 -1103,8214 -48459,18440 -67504,18440 -13313,0 -22231,-4125 -28909,-13391 -3216,-4453 -6490,-6472 -10162,-5904 -4559,703 -9885,5377 -9885,16194 0,7663 3088,24463 12259,24463 6445,0 6733,-13276 4061,-22007l0 0zm30621 58968c4321,-4602 5840,-7957 4768,-10571 -1542,-3774 -11380,-14757 -24253,-27147 -396,2729 -1109,5610 -1718,7561 8677,11497 11917,23844 8992,34215 1058,707 1714,1028 2100,1177 3330,1329 7490,-2442 10111,-5235l0 0zm-62652 -62529c-64,67 -1663,1650 -2701,3787 2695,14 5833,477 8656,1238 -189,-2503 -375,-5894 -131,-8823 -2381,538 -4938,2837 -5824,3798l0 0zm432759 78981c8156,-3724 14040,-13824 15586,-23699 -5168,2533 -10994,3771 -17713,3771 -18477,0 -41699,-10277 -62743,-19593 0,0 -4538,3814 -12059,4612 21237,6527 62963,29687 66030,44543 2046,9938 -4427,13729 -4427,13729 -9286,-15149 -33211,-38672 -65146,-50437 67,5533 -995,9422 -995,9422 0,0 -6482,1596 -20245,-795 12035,10043 43649,45513 47082,72427 2286,17967 -10267,18799 -10267,18799 -1792,-27026 -15964,-54989 -41543,-83073 0,0 -4196,6577 -9773,9895 0,0 -9448,-1674 -17283,-6858 3016,35659 4802,81973 2928,95993 -1312,9767 -6966,13855 -6966,13855 0,0 -5678,-4088 -6986,-13855 -1870,-14020 -88,-60334 2928,-95993 -7838,5184 -17287,6858 -17287,6858 -5572,-3318 -9762,-9895 -9762,-9895 -25585,28084 -39758,56047 -41550,83073 0,0 -12556,-832 -10263,-18799 3429,-26914 35043,-62384 47079,-72427 -13767,2391 -20246,795 -20246,795 0,0 -1062,-3889 -994,-9422 -31933,11765 -55858,35288 -65147,50437 0,0 -6476,-3791 -4423,-13729 3060,-14856 44789,-38016 66026,-44543 -7521,-798 -12063,-4612 -12063,-4612 -21037,9316 -44261,19593 -62739,19593 -6719,0 -12549,-1238 -17716,-3771 1549,9875 7430,19975 15586,23699 -28551,20090 -10919,67172 -49213,58322 21355,39643 64542,43626 64542,43626 -9570,-20972 2360,-84956 59682,-114024 -35287,35175 -51360,77831 -41996,107917 8586,27618 36504,38811 57531,39291 -14865,-45662 -5705,-97965 25146,-130885 -13219,36109 -31808,132478 21865,150965 53673,-18487 35068,-114856 21842,-150965 30857,32920 40015,85223 25149,130885 21024,-480 48946,-11673 57535,-39291 9360,-30086 -6713,-72742 -41996,-107917 57321,29068 69248,93052 59678,114024 0,0 43190,-3983 64542,-43626 -38294,8850 -20662,-38232 -49216,-58322l0 0zm-132975 -794280c0,-2824 -2236,-5130 -4978,-5130 -2743,0 -4971,2306 -4971,5130 0,2841 2228,5147 4971,5147 2742,0 4978,-2306 4978,-5147l0 0zm25088 0c0,-2824 -2222,-5130 -4971,-5130 -2739,0 -4968,2306 -4968,5130 0,2841 2229,5147 4968,5147 2749,0 4971,-2306 4971,-5147l0 0zm-38987 -133300c0,5303 4177,9628 9313,9628 5137,0 9310,-4325 9310,-9628 0,-5302 -4173,-9624 -9310,-9624 -5136,0 -9313,4322 -9313,9624l0 0zm2996 -20448l12675 0 -1370 -15343 13770 1475 0 -12140 -13770 1464 1370 -15332 -12675 0 1370 15332 -13767 -1464 0 12140 13767 -1475 -1370 15343 0 0zm-14192 153748c0,-2824 -2236,-5130 -4978,-5130 -2743,0 -4974,2306 -4974,5130 0,2841 2231,5147 4974,5147 2742,0 4978,-2306 4978,-5147l0 0zm-29870 19042c1346,487 2898,747 4741,747l91324 0c1846,0 3398,-260 4737,-747 2953,-1062 4741,-3277 5441,-6824l-111681 0c694,3547 2486,5762 5438,6824l0 0zm5022 -19042c0,-2824 -2232,-5130 -4978,-5130 -2739,0 -4974,2306 -4974,5130 0,2841 2235,5147 4974,5147 2746,0 4978,-2306 4978,-5147l0 0zm99886 0c0,-2824 -2236,-5130 -4968,-5130 -2746,0 -4981,2306 -4981,5130 0,2841 2235,5147 4981,5147 2732,0 4968,-2306 4968,-5147l0 0zm5972 -12181c2573,-3202 15372,-28006 15372,-53050 0,-22535 -28263,-34942 -45080,-35511 -1944,32197 -14460,82732 -30766,82732 -15433,0 -28848,-50244 -30769,-82732 -16813,569 -45077,12976 -45077,35511 0,25044 12796,49848 15373,53050l120947 0 0 0zm-60474 -21818c7680,0 17605,-32061 20144,-62407 0,-6145 -7686,-15542 -20144,-15786 -12461,244 -20147,9641 -20147,15786 2228,28300 12583,62407 20147,62407l0 0zm-244155 163664c-14903,20539 5704,43017 6976,44569 896,1096 1667,599 1532,-629 -112,-1055 10723,-32727 73090,-16046 1336,359 2151,383 903,-913 -11521,-9150 -25190,-29663 -29610,-46165 0,0 -37985,-1353 -52891,19184l0 0zm33434 -4295c0,-5739 8328,-7321 13117,-7321 0,0 2103,5542 4210,8609 -4856,-2177 -11606,-2401 -17327,-1288l0 0zm33105 -26803c-4145,0 -5698,2645 -4342,7227 14332,48404 53396,59885 68820,80851 0,0 -109,-6534 7047,-22116 4869,8014 18061,23022 26634,24929 -2050,-4315 -4488,-21355 -2587,-32808 20245,17746 45205,21236 58596,10993 -11406,440 -26255,-12278 -33728,-23563 10439,2418 24804,-74 27766,-3077 -6594,-1610 -14588,-7473 -19400,-13039 7406,-514 23468,-6598 28061,-15170 -6442,1464 -15992,-1170 -22211,-4467 4734,-2567 16560,-15265 19397,-26411 -16790,8251 -43281,16455 -82521,16455 0,0 -69340,196 -71532,196l0 0zm43322 22065c-11095,4406 -16654,10351 -16654,10351 0,0 -5323,-8755 -7024,-11568 -1701,-2814 -2232,-6263 3504,-6263l34391 0c0,2350 -3125,3077 -14217,7480l0 0zm-117406 78761c3588,4772 13743,19343 36024,6314 22279,-13030 33769,-20121 33769,-20121 0,0 -3483,6719 -842,14785 156,463 677,443 879,-38 2222,-5217 21572,-20316 46244,-22403 -9046,-7923 -18971,-14984 -18971,-14984 -10544,1708 -30972,8928 -57406,26127 -26431,17199 -38611,10016 -39119,9695 -500,-325 -1217,-223 -578,625l0 0zm315718 549123c3807,-1214 6989,-3162 8629,-5343 -17073,-740 -31165,-15504 -36328,-24614 -5668,9397 -15792,16742 -15792,16742 -7207,-1904 -17061,-9773 -20527,-15792 -3469,6019 -13323,13888 -20533,15792 0,0 -10121,-7345 -15795,-16742 -5157,9110 -19249,23874 -36322,24614 1640,2181 4822,4129 8630,5343 2549,822 5370,1326 8210,1326 3006,0 6026,-545 8735,-1816 -1708,6209 -2273,13871 -1028,19123 0,0 9079,717 18457,-2830 676,5677 3260,12545 7503,17192 832,913 1705,1768 2662,2475 5035,0 17188,-5874 19481,-9496 2286,3622 14446,9496 19478,9496 961,-707 1830,-1562 2665,-2475 4241,-4647 6827,-11515 7500,-17192 4221,2120 9117,2969 14535,2969 1278,0 2587,-48 3915,-139 1255,-5252 687,-12914 -1021,-19123 2709,1271 5729,1816 8732,1816 2847,0 5667,-504 8214,-1326l0 0zm-170390 -364663c-3344,0 -5417,2141 -5417,5587l0 209075c0,19931 7845,30045 23309,30045l38700 149c26518,0 42158,9144 49780,20476 6479,-10568 24686,-20476 49781,-20476l38686 -149c15470,0 23312,-10114 23312,-30045l0 -209075c0,-3446 -2076,-5587 -5410,-5587l-212741 0 0 0zm37797 195610c-372,4626 4998,13043 13857,10408 -263,1708 230,6378 2212,9881 -15697,3565 -22467,-9370 -16069,-20289l0 0 0 0zm142325 -69212c-2161,-2299 -4302,-4622 -6395,-6973 -2242,-2492 -3838,-3459 -6121,-3459 -5140,0 -10635,2820 -13573,4768 -196,81 -345,271 -420,778 3128,-281 6260,-507 9374,-859 2736,-321 5289,-210 7643,1549 1856,1379 2904,3084 3002,5309 298,7118 5969,22095 6321,26593 443,1765 -1681,2282 -4620,10547 -2171,2431 -8041,-5282 -7189,-7088 3416,-4467 4362,-7250 3497,-10577 -697,-2675 -1999,-7453 -2963,-10040 -1291,-3456 -4193,-4752 -7801,-3514 -14149,4704 -16333,-1566 -30357,4332l16154 25034c-61,-1813 -930,-5089 -3540,-7446 473,-2523 5566,-3571 7470,-1204 2336,2999 6895,7277 10645,7967 7206,1332 6665,12295 25923,15964 -2394,2483 -7740,1641 -10067,514 1407,2175 3024,4228 5925,4971 -2983,3000 -11552,-4034 -10676,3044 1485,-859 3534,-998 5269,-558 3845,960 10151,22843 -3128,32406 2823,849 5867,-649 8731,-649 1684,0 3253,1633 3422,3459 1235,950 2050,2120 2770,3618 -1001,328 -2929,24 -4004,-689 436,1214 335,4132 -118,4189 -1201,163 -2127,-527 -3355,-1264 -1711,875 -7328,520 -8917,-907 -4244,1032 -8427,2422 -12847,2422 -2384,0 -5529,-153 -5417,-3071 54,-1427 761,-2161 1315,-3720 -2032,-2093 -5424,-64 -9465,328 -5478,528 -7734,-328 -8924,-1444 5174,-4798 2049,-16485 -5938,-17520 6570,6310 5715,16516 -1640,18812 2123,687 3175,1647 3990,3162 2584,1075 2624,2955 2428,3794 -1413,-1004 -3963,-1998 -5996,-1731 -148,892 -517,2556 -1285,3202 -879,-189 -2022,-997 -2468,-1640 -2347,-1806 -16983,1640 -17872,-771 -565,-2242 3344,-4126 6946,-4920 -9266,-3409 -17307,-20909 -31581,-23868 -6618,-1369 -15586,1610 -15586,10243 0,4241 3405,7504 7081,7504 3385,0 5076,-2347 5076,-4721 -541,413 -879,670 -1214,940 -2066,1705 -4711,1600 -6618,-270 -1677,-1644 -1677,-4498 -50,-6429 1342,-1606 2955,-2512 5106,-2830 5590,-815 10158,974 13235,5468 1465,2147 2276,4440 2276,6665 0,9946 -9932,12201 -15433,12201 -13838,0 -21994,-9935 -21994,-21429 0,-1343 67,-2702 294,-4068 2167,-12938 13688,-18349 23661,-19965 -1272,-4505 -3730,-8140 -7254,-11116 -1758,-1477 -1934,-2681 -828,-4565 1508,-2577 3087,-5113 3753,-8018 153,-649 220,-1339 268,-2045 -4965,4460 -11900,8548 -21504,11467 -3030,1403 -4630,4172 -5015,7351 -440,3690 -544,7436 -605,11160 -21,858 602,1795 1072,2620 1788,3074 3760,6063 4200,9898 0,1860 -9320,2049 -9320,562 -91,-6743 -4579,-9364 -4099,-13814 1245,-6926 1519,-13851 389,-20814 -287,-1748 646,-2902 1891,-3835 1981,-1515 4085,-2864 6059,-4369 4667,-3574 6598,-8231 5506,-14007 -146,-750 -477,-1477 -802,-2184 -2323,-5140 -4017,-10341 -4017,-16134 0,-6357 -7856,-5992 -7345,251 166,1951 1616,4683 2431,6556 8055,18572 -6428,31953 -21409,31947 15749,-5465 -3679,-25674 -3679,-40752 0,-9242 7125,-16076 15633,-16076 9804,0 16026,6333 17805,7422 4744,-7541 19275,-8904 24729,-9773 -412,-4061 156,-7669 2638,-10787 162,-210 267,-602 179,-825 -778,-1921 -1603,-3815 -2671,-5674 -4474,5058 -5546,11771 -5546,15237 -16567,-243 -23868,-7514 -28767,-10375 23,-1264 4426,-9215 8332,-14463 -4281,3683 -7805,7825 -10389,12793 -2370,-1715 -4856,-3263 -7290,-4281 3730,-8015 8677,-14250 14980,-20770 -8873,3283 -16600,13344 -19529,19667 -2532,-291 -6276,-392 -8366,17 9675,-11856 14098,-35219 35369,-40461 -5326,21666 7923,30469 17043,24814 -1184,0 -1999,193 -2763,0 -17790,-4521 -7247,-29210 -11551,-34347 -1637,-1947 -2486,-3736 -2215,-6201 91,-870 -163,-1877 -558,-2679l-9462 -15826c-1194,-1991 2492,-3408 3283,-2495l9652 15829c246,399 554,977 913,1045 3527,622 4619,3554 6046,6144 453,836 805,1796 893,2743 64,717 -132,1728 -616,2215 -1532,1559 -1234,3087 -47,5106 1904,3240 59050,98540 59050,98540 -12408,5086 -34865,5499 -41368,4870 -1346,3307 -3459,6793 -6577,10158 3111,-2032 5522,-4606 7747,-7409 2513,294 6277,1302 10125,1579 -2276,4876 -5698,9726 -10087,13790 -2067,2040 -4623,3842 -3680,7105 1059,3673 7883,10669 10368,15214 2472,524 6639,1403 9699,2628 1745,3753 7646,8467 14757,6026 -14301,-180 -13246,-14849 -8799,-22606 -483,7206 2996,13188 7392,13871 -6597,-6030 -5938,-19728 494,-27242 913,12197 4606,18612 9895,20059 -6987,-6435 -11180,-21327 -629,-32179 815,27844 26282,22822 28598,55059 9431,0 9969,-12715 4711,-15055 -3071,-1149 -5840,-3175 -7413,-5931 -656,-1156 -1332,-3226 -1866,-4440 -2804,-8282 -10720,-7757 -10527,-9746 186,-669 1433,-977 3182,-977l-14917 -23076 -777 -1204c1799,-365 2198,-1414 348,-4329 0,0 -55973,-93190 -56243,-93728 5208,-903 10206,511 15072,2395 -1299,-1208 -2357,-2888 -2584,-4630 -189,-1396 -135,-2211 988,-3101 1193,-974 2333,-2096 3168,-3365 2777,-4230 7883,-6299 12526,-4974 7003,1995 9478,9918 4332,14088 -2740,6046 -6138,5282 -6835,7994 1373,636 10950,8042 11586,11156 -2854,5952 -4275,15248 -1793,20435 1847,-24723 16719,-36812 31203,-36812 3435,0 6854,598 10283,1765 1873,636 3750,1549 5313,2739 2255,1725 4379,3683 6286,5776 2824,3104 5414,6428 10223,6645 -1407,2002 -3007,3469 -4643,4910 -1184,1062 -1776,2333 -1921,3929 -335,3433 -1461,6578 -3984,9107 -331,328 -612,771 -767,1204 -1607,4670 -3236,9320 -4748,14017 -372,1143 -291,2722 -1833,2702 -1339,-17 -2955,-406 -3953,-1225 -2127,-1721 -2888,-4227 -2127,-6871 757,-2628 0,-4886 -832,-7335 -852,-2445 -1146,-5092 -1721,-7886 -3953,-1383 -11376,7119 -5708,14244 3679,5255 6986,14929 7558,18889 118,389 -3348,2577 -8123,1965 -16144,-2063 -26353,-13286 -29454,-22748 -257,16036 13043,27919 32744,26769 805,3736 3852,6269 7403,6388 737,-2411 723,-7470 121,-10690 -270,-1410 470,-2137 1779,-2475 4312,-1092 9918,-666 14717,-2381 4251,-1531 6263,-635 8910,4515 2002,3889 5431,8072 8664,10953 1360,1204 2719,2425 4001,3716 1636,1637 2488,3568 2617,5952 -423,3740 71,11261 71,11379 -930,2465 -7744,-145 -8843,-2797 -413,-984 2915,-7916 -578,-11636l0 0zm117511 -399770c-4417,16502 -18085,37015 -29610,46165 -1251,1296 -432,1272 903,913 62367,-16681 73205,14991 73090,16046 -135,1228 636,1725 1529,629 1275,-1552 21882,-24030 6983,-44569 -14910,-20537 -52895,-19184 -52895,-19184l0 0zm2127 16177c2110,-3067 4217,-8609 4217,-8609 4781,0 13114,1582 13114,7321 -5722,-1113 -12468,-889 -17331,1288l0 0zm58309 72735c639,-848 -78,-950 -585,-625 -501,321 -12681,7504 -39112,-9695 -26434,-17199 -46862,-24419 -57406,-26127 0,0 -9922,7061 -18971,14984 24672,2087 44025,17186 46244,22403 206,481 720,501 875,38 2645,-8066 -838,-14785 -838,-14785 0,0 11491,7091 33769,20121 22281,13029 32436,-1542 36024,-6314l0 0zm-208737 -91066c-6219,3297 -15772,5931 -22214,4467 4593,8572 20659,14656 28061,15170 -4812,5566 -12810,11429 -19400,13039 2965,3003 17327,5495 27766,3077 -7477,11285 -22325,24003 -33728,23563 13394,10243 38354,6753 58596,-10993 1901,11453 -537,28493 -2586,32808 8572,-1907 21764,-16915 26633,-24929 7152,15582 7047,22116 7047,22116 15427,-20966 54492,-32447 68820,-80851 1356,-4582 -197,-7227 -4342,-7227 -2188,0 -71528,-196 -71528,-196 -39247,0 -65735,-8204 -82525,-16455 2837,11146 14659,23844 19400,26411l0 0zm111505 4825c5736,0 5201,3449 3504,6263 -1701,2813 -7027,11568 -7027,11568 0,0 -5556,-5945 -16651,-10351 -11092,-4403 -14217,-5130 -14217,-7480l34391 0 0 0zm-256600 72502c-2235,6330 -2894,13317 -1704,22403 7210,15667 10700,44756 8471,61018 11487,-16026 16590,-34053 19877,-48476 6588,6743 15136,16388 21095,24206 1028,-8464 2844,-18920 4436,-26468 8579,8194 26387,18484 38426,22133 -8106,-34202 -21974,-56003 -21974,-56003 -11772,1187 -30732,-1684 -39254,-10071 1522,12394 10047,26641 10047,26641 -18264,1782 -31202,-4454 -39420,-15383l0 0zm204263 0c-8214,10929 -21152,17165 -39416,15383 0,0 8522,-14247 10044,-26641 -8522,8387 -27476,11258 -39247,10071 0,0 -13872,21801 -21981,56003 12045,-3649 29850,-13939 38429,-22133 1596,7548 3408,18004 4430,26468 5968,-7818 14510,-17463 21104,-24206 3287,14423 8387,32450 19874,48476 -2228,-16262 1261,-45351 8471,-61018 1187,-9086 528,-16073 -1708,-22403l0 0zm-157099 107758c6891,11082 13022,24412 15149,36278 6608,-7997 13588,-21896 18315,-38503 5796,7250 15928,22014 21507,34192 5576,-12178 15704,-26942 21504,-34192 4727,16607 11707,30506 18318,38503 2120,-11866 8255,-25196 15146,-36278 5242,21572 25464,42548 46328,44127 -13573,-17628 -14131,-48093 -13174,-58238 -9036,-14061 -14991,-26742 -17838,-35358 -6131,6060 -15613,17844 -24121,31462 0,-162 -247,-17074 -3639,-37610 -8772,7930 -24659,13668 -33150,15897 -5356,8741 -6827,15562 -9374,26529 -2550,-10967 -4021,-17788 -9377,-26529 -8491,-2229 -24375,-7967 -33150,-15897 -3395,20536 -3639,37448 -3639,37610 -8511,-13618 -17990,-25402 -24124,-31462 -2847,8616 -8799,21297 -17835,35358 961,10145 396,40610 -13178,58238 20872,-1579 41090,-22555 46332,-44127l0 0zm-189073 255068c11714,-7642 19123,-21527 27560,-38513 -4910,2036 -12028,4237 -19160,5719 -6959,13458 -16810,8241 -17070,6330 2130,-2360 4561,-5850 6388,-8887 -2963,-5549 -6537,-13817 -8505,-18930 -9956,20962 -28243,42256 -43552,50565 9009,12526 36934,15075 54339,3716l0 0zm36197 -35331c-8305,17534 -6351,44553 20093,45317 -2194,-19133 6422,-37133 15634,-45317 -7920,1955 -20821,12350 -20821,12350 0,0 -1941,4454 -2333,10219 -5533,991 -8593,-3277 -6297,-12170 0,0 -4000,-4576 -6276,-10399l0 0zm-130906 20023c3852,0 7744,-477 11562,-1417 25538,-6310 49855,-28149 64312,-46487 -8262,2614 -16597,4315 -25843,5248 0,0 -6472,7578 -11460,10375 -2526,1430 -5049,2120 -7443,2120 -7226,0 -10294,-5928 -10294,-5928 0,0 11653,-5586 19069,-13519 -1471,-5851 -2404,-13949 -2573,-22021 -20107,20201 -57900,39828 -84300,43639 5224,10879 23762,27990 46970,27990l0 0zm-51126 -42852c1319,0 2654,-64 3963,-189 26248,-2597 57924,-19407 78318,-33958 -6489,1322 -23563,1701 -31662,574 -2803,1877 -15153,9682 -25430,10987 -18744,2378 -20729,-9225 -20729,-9225 12042,-1474 25927,-5539 39196,-11717 1333,-9996 3646,-18900 5621,-25470 -28933,16116 -76137,27452 -104137,27824 5603,13310 27323,41174 54860,41174l0 0zm4125 -94546c4031,-7136 10419,-15566 16229,-22447 -23100,6364 -52838,7689 -68603,7689 -18585,0 -36647,-1308 -47004,-3388 916,18673 18680,50886 53723,54031 1826,166 3845,247 6009,247 21862,0 56629,-8846 80554,-17337 -17057,-2195 -33532,-6243 -37289,-7819 -8897,2553 -30151,6114 -37053,5736 -15663,-859 -17344,-12891 -17344,-12891 0,0 28196,1194 50778,-3821l0 0zm-84117 -34215c13016,4206 33775,6617 56960,6617 14148,0 29068,-1264 41205,-2989 -13108,-4464 -29285,-11210 -39795,-17896 -13138,-263 -30976,-635 -42426,-4145 -16840,-5151 -16604,-16675 -16303,-19262 14562,5854 39328,11457 57640,12549 6746,-6503 17172,-14250 28169,-20996 -43440,382 -98902,-16831 -130060,-33329 -7126,57984 32243,75450 44610,79451l0 0zm95496 -120234c-6705,-12863 -13242,-30170 -14104,-45087 -20320,-15968 -43511,-36288 -56933,-59513 -7754,-13421 -4890,-25186 602,-29237 4186,14585 31476,55421 56206,75900 192,-13087 2397,-28142 5806,-39463 -28754,-31297 -60984,-83140 -68772,-103454 -8755,7250 -23837,25487 -27547,51184 -3729,25866 4650,52435 24923,78978 15589,20418 49902,50859 79819,70692l0 0zm-8268 65783c-19762,-13114 -33467,-25281 -40772,-36204 -16515,-6425 -37877,-16235 -48397,-25074 -14457,-12137 -9881,-23056 -8197,-25237 12728,12999 40295,31736 59874,40072 12225,-4765 29214,-8258 45760,-10294 -49043,-19383 -101688,-55766 -129201,-90062 -5576,10834 -28243,61802 14247,103592 22376,22018 68464,37208 106686,43207l0 0zm637471 187091c-1968,5113 -5542,13381 -8511,18930 1829,3037 4264,6527 6394,8887 -260,1911 -10111,7128 -17067,-6330 -7135,-1482 -14250,-3683 -19163,-5719 8437,16986 15846,30871 27560,38513 17405,11359 45330,8810 54339,-3716 -15312,-8309 -33596,-29603 -43552,-50565l0 0zm-46984 18950c-2276,5823 -6273,10399 -6273,10399 2296,8893 -764,13161 -6300,12170 -392,-5765 -2336,-10219 -2336,-10219 0,0 -12898,-10395 -20821,-12350 9215,8184 17831,26184 15637,45317 26447,-764 28398,-27783 20093,-45317l0 0zm91006 -29585c7413,7933 19059,13519 19059,13519 0,0 -3067,5928 -10287,5928 -2394,0 -4913,-690 -7443,-2120 -4988,-2797 -11457,-10375 -11457,-10375 -9245,-933 -17591,-2634 -25845,-5248 14456,18338 38776,40177 64308,46487 3817,940 7713,1417 11568,1417 23205,0 41743,-17111 46967,-27990 -26397,-3811 -64193,-23438 -84303,-43639 -169,8072 -1103,16170 -2567,22021l0 0zm47370 -36772c13273,6178 27154,10243 39199,11717 0,0 -1985,11603 -20732,9225 -10274,-1305 -22630,-9110 -25427,-10987 -8099,1127 -25176,748 -31665,-574 20398,14551 52070,31361 78315,33958 1312,125 2651,189 3970,189 27533,0 49253,-27864 54856,-41174 -28000,-372 -75200,-11708 -104137,-27824 1975,6570 4288,15474 5621,25470l0 0zm23302 -73465c5810,6881 12194,15311 16229,22447 22579,5015 50771,3821 50771,3821 0,0 -1674,12032 -17334,12891 -6909,378 -28155,-3183 -37052,-5736 -3761,1576 -20236,5624 -37293,7819 23922,8491 58692,17337 80554,17337 2164,0 4183,-81 6009,-247 35047,-3145 52807,-35358 53727,-54031 -10358,2080 -28423,3388 -47008,3388 -15762,0 -45503,-1325 -68603,-7689l0 0zm144960 -91219c-31162,16498 -86623,33711 -130070,33329 11003,6746 21429,14493 28179,20996 18304,-1092 43078,-6695 57636,-12549 297,2587 537,14111 -16300,19262 -11453,3510 -29288,3882 -42425,4145 -10517,6686 -26688,13432 -39802,17896 12140,1725 27060,2989 41205,2989 23188,0 43951,-2411 56967,-6617 12359,-4001 51735,-21467 44610,-79451l0 0zm-69671 -174620c5491,4051 8352,15816 598,29237 -13422,23225 -36609,43545 -56929,59513 -866,14917 -7406,32224 -14112,45087 29924,-19833 64237,-50274 79823,-70692 20273,-26543 28656,-53112 24923,-78978 -3710,-25697 -18792,-43934 -27547,-51184 -7784,20314 -40018,72157 -68772,103454 3409,11321 5614,26376 5806,39463 24730,-20479 52016,-61315 56210,-75900l0 0zm-24683 153177c19583,-8336 47150,-27073 59875,-40072 1687,2181 6263,13100 -8194,25237 -10520,8839 -31881,18649 -48397,25074 -7305,10923 -21007,23090 -40776,36204 38223,-5999 84314,-21189 106693,-43207 42487,-41790 19820,-92758 14244,-103592 -27510,34296 -80155,70679 -129205,90062 16553,2036 33539,5529 45760,10294l0 0zm-114275 -58675c-15930,36982 -56314,69956 -82433,86461 -11920,7528 -7572,21808 -3760,28142 35591,59165 -29126,103264 -87574,73939 12752,139 25629,-10703 27411,-20371 -4054,3504 -20651,1580 -25555,-2959 7528,-3939 9320,-7940 9709,-11676 -9313,5721 -28132,6509 -33681,-3155 -30881,-832 -51424,-24953 -53696,-31913 -2290,7403 -5986,20344 -7200,33113 -8376,-5674 -22684,-18521 -30137,-35940 -8444,12066 -14808,25653 -18937,39971 -4135,-14318 -10493,-27905 -18940,-39971 -7457,17419 -21761,30266 -30134,35940 -1217,-12769 -4910,-25710 -7203,-33113 -2269,6960 -22815,31081 -53696,31913 -5549,9664 -24368,8876 -33678,3155 386,3736 2178,7737 9706,11676 -4904,4539 -21501,6463 -25559,2959 1786,9668 14663,20510 27415,20371 -58451,29325 -123165,-14774 -87577,-73939 3815,-6334 8160,-20614 -3753,-28142 -26123,-16505 -66507,-49479 -82437,-86461 -1894,15082 -450,52503 15731,75789 -11826,4525 -26985,11870 -37174,18677 6445,7331 21453,19999 31537,26887 -8231,7328 -21007,21358 -27716,30543 8498,5059 25619,11200 38703,15345 -6050,9993 -15350,28010 -17686,38733 14649,2134 29602,1938 42797,1522 -1680,12505 -571,28206 748,39649 13597,-1957 28554,-7483 38479,-12708 1880,8630 7068,24558 11717,33083 12901,-12259 29911,-17869 45662,-14619 32244,6652 41831,39308 41831,39308l51 -99338 0 -11092c0,-6188 3327,-9469 9299,-9465l223751 0c5972,-4 9299,3277 9299,9465l0 11092 51 99338c0,0 9584,-32656 41831,-39308 15748,-3250 32764,2360 45662,14619 4653,-8525 9837,-24453 11720,-33083 9922,5225 24879,10751 38473,12708 1322,-11443 2428,-27144 747,-39649 13046,1353 28054,1353 42798,-1522 -2330,-10723 -11633,-28740 -17683,-38733 13608,-3652 30202,-10286 38703,-15345 -6706,-9185 -19485,-23215 -27716,-30543 10081,-6888 25092,-19556 31541,-26887 -10196,-6807 -25359,-14152 -37174,-18677 16177,-23286 17621,-60707 15727,-75789l0 0zm-406665 -116290l-1326 3490c39091,0 76675,-13395 86705,-60037l-29948 0c-5313,33603 -25041,56547 -55431,56547l0 0zm-169020 -75876c0,0 21385,4964 29755,35087 8369,30130 29403,44546 50981,44546l-1329 -4108c-12553,-1566 -30262,-19468 -33573,-52625 -3334,-33387 -11511,-37685 -11511,-37685 -8450,-5850 -29690,9601 -34323,14785l0 0zm-62550 13475c17832,-585 29840,5096 52256,-15352 26465,-24145 39028,-20019 39028,-20019 -13507,-8796 -32339,-12705 -38808,-7622 -6466,5079 -15224,18720 -29934,28432 -20733,13682 -42033,10071 -42987,22826l578 0c0,0 2033,-7676 19867,-8265l0 0zm16452 80043c10845,10699 11839,32693 11839,32693 0,0 12982,-23309 2282,-48093 -10696,-24773 -32561,-43788 -11125,-58258 -13094,115 -27283,-2902 -33512,5985 -1941,2766 -3737,9624 2787,19387 8298,12404 29010,41249 12038,60453 12407,-2296 15691,-12167 15691,-12167l0 0zm133918 -14020l73463 0c0,0 1819,-4464 4132,-10913l-81727 0c2320,6449 4132,10913 4132,10913l0 0zm43961 -104441c0,-4017 -3172,-7277 -7081,-7277 -3909,0 -7081,3260 -7081,7277 0,4021 3172,7277 7081,7277 3909,0 7081,-3256 7081,-7277l0 0zm36691 85294c3138,-9864 6678,-24865 6678,-32108 0,-13229 -7111,-27878 -32781,-32386 0,15988 -7764,55168 -17145,55168l-1055 0c-9373,0 -17138,-38889 -17138,-55168 -25754,4501 -33079,19154 -33079,32386 0,7243 3541,22244 6686,32108l87834 0 0 0zm-43772 -20300c4887,0 8850,-25581 8850,-38313 0,-6960 -3963,-11521 -8850,-11521 -4890,0 -8853,4561 -8853,11521 0,12732 3963,38313 8853,38313l0 0zm-4724 -81973l9445 0 -1180 -12130 11802 1217 0 -9705 -11802 1214 1180 -12126 -9445 0 1184 12126 -11799 -1214 0 9705 11799 -1217 -1184 12130 0 0zm195234 61251l-29944 0c10030,46642 47610,60037 86701,60037l-1322 -3490c-30391,0 -50119,-22944 -55435,-56547l0 0zm143719 60304c21578,0 42611,-14416 50981,-44546 8366,-30123 29754,-35087 29754,-35087 -4636,-5184 -25872,-20635 -34323,-14785 0,0 -8177,4298 -11514,37685 -3307,33157 -21017,51059 -33569,52625l-1329 4108 0 0zm91029 -81510c22413,20448 34422,14767 52256,15352 17831,589 19864,8265 19864,8265l578 0c-954,-12755 -22251,-9144 -42980,-22826 -14714,-9712 -23472,-23353 -29941,-28432 -6469,-5083 -25301,-1174 -38807,7622 0,0 12562,-4126 39030,20019l0 0zm66317 27722c-6229,-8887 -20415,-5870 -33508,-5985 21432,14470 -427,33485 -11129,58258 -10696,24784 2286,48093 2286,48093 0,0 994,-21994 11839,-32693 0,0 3283,9871 15694,12167 -16976,-19204 3736,-48049 12035,-60453 6523,-9763 4724,-16621 2783,-19387l0 0zm-164431 53653c0,0 1809,-4464 4132,-10913l-81726 0c2313,6449 4129,10913 4129,10913l73465 0 0 0zm-29802 -104441c0,-4017 -3169,-7277 -7081,-7277 -3906,0 -7081,3260 -7081,7277 0,4021 3175,7277 7081,7277 3912,0 7081,-3256 7081,-7277l0 0zm36988 85294c3138,-9864 6682,-24865 6682,-32108 0,-13232 -7328,-27885 -33086,-32386 0,16279 -7757,55168 -17134,55168l-1052 0c-9381,0 -17145,-39180 -17145,-55168 -25673,4508 -32781,19157 -32781,32386 0,7243 3537,22244 6675,32108l87841 0 0 0zm-44069 -20300c4890,0 8856,-25581 8856,-38313 0,-6960 -3966,-11521 -8856,-11521 -4887,0 -8846,4561 -8846,11521 0,12732 3959,38313 8846,38313l0 0zm-4718 -81973l9442 0 -1180 -12130 11802 1217 0 -9705 -11802 1214 1180 -12126 -9442 0 1181 12126 -11806 -1214 0 9705 11806 -1217 -1181 12130 0 0zm-480641 291539c-19083,460 -52683,4274 -69753,9705 11602,13973 41891,34029 60044,42551 -14115,5363 -39433,18977 -49987,28801 13601,8437 43481,18068 57599,21219 -8221,6689 -25149,26032 -31358,36461 11694,3662 35734,6844 51002,7744 -4893,10229 -10470,28290 -11944,40058 7568,768 32849,-541 45368,-3358 -1076,10257 -667,28913 1024,36955 12353,-1779 29985,-6763 38196,-9946 2370,9144 10865,28832 13851,33509 9894,-1907 21706,-5959 30387,-10524 2746,7328 8981,18291 10706,21061 28919,-29322 70219,-5543 70219,25656 -2966,20557 -31909,19411 -47146,29072 -20033,12705 -16563,42162 -37188,46686 19485,12353 25156,-10834 45395,-11497 -2702,12509 -2445,34719 -419,44018 8328,-6445 20012,-11365 27654,-11866 -1887,7294 -3361,24368 -629,35003 5367,-4078 25420,-21564 73030,-10324 5769,1366 -32295,-138 -27544,12177 3737,9706 4799,16455 325,30235 2019,727 4359,1069 6882,1069 10675,0 24516,-6212 30015,-15965 4250,3169 4250,25731 -9986,31334 15207,1113 26786,-11274 29031,-18886 0,0 7433,17723 16249,23540 5535,-1948 15396,-11146 19207,-20706 3808,9560 13669,18758 19201,20706 8819,-5817 16252,-23540 16252,-23540 2245,7612 13827,19999 29031,18886 -14233,-5603 -14233,-28165 -9986,-31334 5499,9753 19340,15965 30015,15965 2523,0 4867,-342 6885,-1069 -4473,-13780 -3412,-20529 325,-30235 4751,-12315 -33312,-10811 -27543,-12177 47599,-11240 67662,6246 73029,10324 2732,-10635 1258,-27709 -629,-35003 7643,501 19323,5421 27655,11866 2022,-9299 2283,-31509 -423,-44018 20239,663 25910,23850 45395,11497 -20621,-4524 -17155,-33981 -37191,-46686 -15238,-9661 -44181,-8515 -47146,-29072 0,-31199 41299,-54978 70226,-25656 1721,-2770 7956,-13733 10702,-21061 8681,4565 20493,8617 30387,10524 2986,-4677 11478,-24365 13852,-33509 8210,3183 25845,8167 38191,9946 1695,-8042 2107,-26698 1028,-36955 12519,2817 37800,4126 45368,3358 -1474,-11768 -7047,-29829 -11947,-40058 15271,-900 39311,-4082 51008,-7744 -6215,-10429 -23140,-29772 -31358,-36461 14115,-3151 43995,-12782 57599,-21219 -10560,-9824 -35878,-23438 -49990,-28801 18153,-8522 48438,-28578 60041,-42551 -17067,-5431 -50667,-9245 -69750,-9705 39498,-27026 40715,-85650 29336,-117501 -7646,19309 -33001,51035 -49368,68139 1451,16283 -3828,45162 -12884,62787 12965,4923 28331,12353 39216,20634 -7223,9093 -22765,23205 -32514,30851 8251,8630 22123,24479 28308,33643 -9137,6845 -29018,14693 -39207,18298 5015,10290 12299,29058 14183,42013 -11609,1921 -27584,3220 -44282,3017 804,12407 -937,31614 -3098,43115 -15488,-1234 -33765,-7595 -41915,-11683 -4312,17145 -14964,33779 -15434,34665 -48421,-52801 -91340,-2990 -91340,43548l0 63409c0,29995 -9449,43690 -36637,43690l-35179 0c-21902,0 -40254,9296 -49412,27154 -9157,-17858 -27513,-27154 -49412,-27154l-35186 0c-27188,0 -36633,-13695 -36633,-43690l0 -63409c0,-46538 -42919,-96349 -91340,-43548 -470,-886 -11122,-17520 -15434,-34665 -8150,4088 -26427,10449 -41912,11683 -2167,-11501 -3905,-30708 -3097,-43115 -16702,203 -32677,-1096 -44286,-3017 1884,-12955 9168,-31723 14186,-42013 -10189,-3605 -30073,-11453 -39206,-18298 6175,-9164 20053,-25013 28300,-33643 -9749,-7646 -25287,-21758 -32510,-30851 10885,-8281 26254,-15711 39216,-20634 -9056,-17625 -14334,-46504 -12884,-62787 -16367,-17104 -41722,-48830 -49375,-68139 -11372,31851 -10155,90475 29343,117501l0 0zm-108993 302776l-3558 3804c0,0 7382,9654 13348,5982 3395,-6270 -6209,-13567 -6209,-13567l-3581 3781 0 0z"/>
 </g>
</svg>
